# xmcd
#
# Track frame offsets: 
#        150
#        12537
#        27092
#        37235
#        46050
#        57410
#        69207
#        79350
#        91955
#        100437
#        111162
#        120095
#        129750
#        138375
#        146855
#        155175
#        163680
#        173125
#        181195
#        190775
#        201492
#        215467
#        223780
#        232870
#        243662
#        255150
#        266092
#        275975
#        287312
#        300792
#        309567
#        317607
#        329765
#
# Disc length: 4599 seconds
#
# Revision: 2
# Processed by: cddbd v1.5.2PL0 Copyright (c) Steve Scherf et al.
# Submitted via: ExactAudioCopy v0.99pb3
#
DISCID=e211f521
DTITLE=Elvis Prestley - Elvis Gold
DYEAR=2000
DGENRE=Rock and Roll
TTITLE0=Love Me Tender
TTITLE1=It' Now Or Never
TTITLE2=Hound Dog
TTITLE3=Tutti Frutti
TTITLE4=Too Much
TTITLE5=I Want You, I Need You, I Love You
TTITLE6=Stuck On You
TTITLE7=Don't
TTITLE8=Hard Headed Woman
TTITLE9=Jailhouse Rock
TTITLE10=Blue Suede Shoes
TTITLE11=Lawdy Miss Clawdy
TTITLE12=Ready Teddy
TTITLE13=Rip It Up
TTITLE14=Long Tall Sally
TTITLE15=Baby I Don't Know Care
TTITLE16=Heartbreak Hotel
TTITLE17=I Got Stung
TTITLE18=A Big Hunk O'love
TTITLE19=Good Luck Charm
TTITLE20=Are You Lonesome Tonight
TTITLE21=Surrender
TTITLE22=Don't Be Cruel
TTITLE23=I Got A Woman
TTITLE24=Money Honey
TTITLE25=Shake Rattle And Roll
TTITLE26=My Baby Left Me
TTITLE27=One Night
TTITLE28=Can't Help Falling In Love
TTITLE29=All Shook Up
TTITLE30=(Let Me Be Your) Teddy Bear
TTITLE31=In The Ghetto
TTITLE32=Suspicious Man
EXTD=
EXTT0=
EXTT1=
EXTT2=
EXTT3=
EXTT4=
EXTT5=
EXTT6=
EXTT7=
EXTT8=
EXTT9=
EXTT10=
EXTT11=
EXTT12=
EXTT13=
EXTT14=
EXTT15=
EXTT16=
EXTT17=
EXTT18=
EXTT19=
EXTT20=
EXTT21=
EXTT22=
EXTT23=
EXTT24=
EXTT25=
EXTT26=
EXTT27=
EXTT28=
EXTT29=
EXTT30=
EXTT31=
EXTT32=
PLAYORDER=
